{"title":"Nights of Cabiria [1957] DVDRip XviD - CODY","uid":9407070,"size":1075185735,"categoryP":"video","categoryS":"movies","magnet":"?xt=urn:btih:9fa063a4018539c8bdcd61e1195cd3f237a46977&amp;dn=Nights+of+Cabiria+%5B1957%5D+DVDRip+XviD+-+CODY&amp;tr=udp%3A%2F%2Ftracker.openbittorrent.com%3A80&amp;tr=udp%3A%2F%2Fopen.demonii.com%3A1337&amp;tr=udp%3A%2F%2Ftracker.coppersurfer.tk%3A6969&amp;tr=udp%3A%2F%2Fexodus.desync.com%3A6969","seeders":3,"leechers":0,"uploader":"CODYBOSS1969","files":6,"time":1388188098,"description":"General\nComplete name                            : Nights of Cabiria [1957] DVDRip XviD - CODY.avi\nFormat                                   : AVI\nFormat/Info                              : Audio Video Interleave\nFile size                                : 1 024 MiB\nDuration                                 : 1h 58mn\nOverall bit rate                         : 1 213 Kbps\nWriting application                      : VirtualDubMod 1.5.10.3 | www.virtualdub-fr.org || (build 2550/release)\nWriting library                          : VirtualDubMod build 2550/release\n\nVideo\nID                                       : 0\nFormat                                   : MPEG-4 Visual\nFormat profile                           : Advanced Simple@L5\nFormat settings, BVOP                    : 4\nFormat settings, QPel                    : No\nFormat settings, GMC                     : No warppoints\nFormat settings, Matrix                  : Default (H.263)\nCodec ID                                 : XVID\nCodec ID/Hint                            : XviD\nDuration                                 : 1h 58mn\nBit rate                                 : 1 075 Kbps\nWidth                                    : 640 pixels\nHeight                                   : 488 pixels\nDisplay aspect ratio                     : 4:3\nFrame rate                               : 23.976 fps\nColor space                              : YUV\nChroma subsampling                       : 4:2:0\nBit depth                                : 8 bits\nScan type                                : Progressive\nCompression mode                         : Lossy\nBits/(Pixel*Frame)                       : 0.144\nStream size                              : 908 MiB (89%)\nWriting library                          : XviD 73\n\nAudio\nID                                       : 1\nFormat                                   : MPEG Audio\nFormat version                           : Version 1\nFormat profile                           : Layer 3\nCodec ID                                 : 55\nCodec ID/Hint                            : MP3\nDuration                                 : 1h 58mn\nBit rate mode                            : Constant\nBit rate                                 : 128 Kbps\nChannel(s)                               : 1 channel\nSampling rate                            : 48.0 KHz\nCompression mode                         : Lossy\nStream size                              : 108 MiB (11%)\nAlignment                                : Aligned on interleaves\nInterleave, duration                     : 42 ms (1.00 video frame)\nInterleave, preload duration             : 504 ms\nWriting library                          : LAME3.99r\nEncoding settings                        : -m m -V 4 -q 2 -lowpass 20.5 -b 128\n\n\nAudio language                           : Italian\n\nIMDB link:                                &lt;a href=&quot; http://www.imdb.com/title/tt0050783/&quot; rel=&quot;nofollow&quot; target=&quot;_NEW&quot;&gt; http://www.imdb.com/title/tt0050783/&lt;/a&gt;\n\nSubtitles included                       : English, Romanian\n\nPlease seed at least 1,5:1 . This way this torrent has a chance to survive !\n\nThanks. Enjoy !\t\t\t\t\t\n\t\t","torrent":{"xt":"urn:btih:9fa063a4018539c8bdcd61e1195cd3f237a46977","amp;dn":"Nights+of+Cabiria+%5B1957%5D+DVDRip+XviD+-+CODY","amp;tr":["udp%3A%2F%2Ftracker.openbittorrent.com%3A80","udp%3A%2F%2Fopen.demonii.com%3A1337","udp%3A%2F%2Ftracker.coppersurfer.tk%3A6969","udp%3A%2F%2Fexodus.desync.com%3A6969"],"infoHash":"9fa063a4018539c8bdcd61e1195cd3f237a46977","infoHashBuffer":{"type":"Buffer","data":[159,160,99,164,1,133,57,200,189,205,97,225,25,92,211,242,55,164,105,119]},"announce":[],"urlList":[]}}